<svg id="logo" version="1.1" xmlns="http://www.w3.org/2000/svg" width="513" height="165" cursor="pointer" viewBox="0 0 171 55">
	<path id="SI" fill="#F06428" stroke="none" fill-rule="evenodd" d="M0,55 v-35 a20,20 0 0 1 20,-20 h44 v35 a20,20 0 0 1 -20,20 z
	   M0,45 h27 a13,13 0 0 0 13,-13 v-8 h-23 v-1 a6,6 0 0 1 6,-6 h17 v-7 h-17 a13,13 0 0 0 -13,13 v8 h23 v1 a6,6 0 0 1 -6,6 h-27 z
	   M47,10 h7 v7 h-7 z  M64,24 v7 h-10 a10,14 0 0 1 -8,14 h-7 a12,14 0 0 0 8,-14 v-7 z"/>
	<g id="FAST" fill="rgb(0,100,185)"> 
		<path id="F" d="M73,45 v-26 a9,9 0 0 1 9,-9 h15 l-1,7 h-13 a3,3 0 0 0 -3,3 v4 h12.75 l-1,7 h-11.75 v14 z"/>
		<path id="A" d="M101.75,45 h-7 l5,-28 a8.85,11 0 0 1 16.5,0 l4.5,28 h-7 l-4.5,-27 a1.25,1.25 0 0 0 -2.5,0 z  M100,28 h15 v7 h-15 z"/>
		<path id="S" d="M124.25,38 l0.5,7 h12.75 a10.5,10.5 0 0 0 0,-21 h-4.5 a3.5,3.5 0 0 1 0,-7 h10.75 v-7 h-10.75 a10.5,10.5 0 0 0 0,21 h4 a3.5,3.5 0 0 1 0,7 z"/>
		<path id="T" d="M148,10 v7 h8 v28 h7 v-28 h8 v-7 z"/>
	</g>
</svg>